<svg xmlns="http://www.w3.org/2000/svg" viewBox="0 0 1180 610" width="1180" height="610">
  <defs>
    <linearGradient id="bgGrad" x1="0%" y1="0%" x2="100%" y2="100%">
      <stop offset="0%" stop-color="#FFFFFF"/>
      <stop offset="50%" stop-color="#F8FAFC"/>
      <stop offset="100%" stop-color="#FFFFFF"/>
    </linearGradient>
    <linearGradient id="borderGrad" x1="0%" y1="0%" x2="100%" y2="0%">
      <stop offset="0%" stop-color="#2563EB" stop-opacity="0.6">
        <animate attributeName="stop-opacity" values="0.6;1;0.6" dur="3s" repeatCount="indefinite"/>
      </stop>
      <stop offset="33%" stop-color="#06B6D4" stop-opacity="0.8">
        <animate attributeName="stop-opacity" values="0.8;1;0.8" dur="3s" repeatCount="indefinite"/>
      </stop>
      <stop offset="66%" stop-color="#10B981" stop-opacity="0.7">
        <animate attributeName="stop-opacity" values="0.7;1;0.7" dur="3s" repeatCount="indefinite"/>
      </stop>
      <stop offset="100%" stop-color="#2563EB" stop-opacity="0.6">
        <animate attributeName="stop-opacity" values="0.6;1;0.6" dur="3s" repeatCount="indefinite"/>
      </stop>
      <animate attributeName="x1" values="0%;100%;0%" dur="6s" repeatCount="indefinite"/>
      <animate attributeName="x2" values="100%;200%;100%" dur="6s" repeatCount="indefinite"/>
    </linearGradient>
    <linearGradient id="textGrad" x1="0%" y1="0%" x2="100%" y2="0%">
      <stop offset="0%" stop-color="#2563EB"/>
      <stop offset="50%" stop-color="#06B6D4"/>
      <stop offset="100%" stop-color="#10B981"/>
      <animate attributeName="x1" values="0%;100%;0%" dur="4s" repeatCount="indefinite"/>
      <animate attributeName="x2" values="100%;200%;100%" dur="4s" repeatCount="indefinite"/>
    </linearGradient>
    <linearGradient id="asciiGrad" x1="0%" y1="0%" x2="0%" y2="100%">
      <stop offset="0%" stop-color="#06B6D4"/>
      <stop offset="50%" stop-color="#2563EB"/>
      <stop offset="100%" stop-color="#10B981"/>
      <animate attributeName="y1" values="0%;100%;0%" dur="5s" repeatCount="indefinite"/>
      <animate attributeName="y2" values="100%;200%;100%" dur="5s" repeatCount="indefinite"/>
    </linearGradient>
    <radialGradient id="glowCyan" cx="50%" cy="50%" r="50%">
      <stop offset="0%" stop-color="#06B6D4" stop-opacity="0.15"/>
      <stop offset="100%" stop-color="#06B6D4" stop-opacity="0"/>
    </radialGradient>
    <radialGradient id="glowBlue" cx="50%" cy="50%" r="50%">
      <stop offset="0%" stop-color="#2563EB" stop-opacity="0.12"/>
      <stop offset="100%" stop-color="#2563EB" stop-opacity="0"/>
    </radialGradient>
    <radialGradient id="glowEmerald" cx="50%" cy="50%" r="50%">
      <stop offset="0%" stop-color="#10B981" stop-opacity="0.1"/>
      <stop offset="100%" stop-color="#10B981" stop-opacity="0"/>
    </radialGradient>
    <linearGradient id="pillGrad" x1="0%" y1="0%" x2="100%" y2="0%">
      <stop offset="0%" stop-color="#F1F5F9"/>
      <stop offset="100%" stop-color="#E2E8F0"/>
    </linearGradient>
    <linearGradient id="scanlineGrad" x1="0%" y1="0%" x2="0%" y2="100%">
      <stop offset="0%" stop-color="#06B6D4" stop-opacity="0"/>
      <stop offset="50%" stop-color="#06B6D4" stop-opacity="0.04"/>
      <stop offset="100%" stop-color="#06B6D4" stop-opacity="0"/>
    </linearGradient>
    <filter id="glow">
      <feGaussianBlur stdDeviation="2" result="blur"/>
      <feMerge>
        <feMergeNode in="blur"/>
        <feMergeNode in="SourceGraphic"/>
      </feMerge>
    </filter>
    <filter id="softGlow">
      <feGaussianBlur stdDeviation="1.5" result="blur"/>
      <feMerge>
        <feMergeNode in="blur"/>
        <feMergeNode in="SourceGraphic"/>
      </feMerge>
    </filter>
    <filter id="textShadow">
      <feDropShadow dx="0" dy="1" stdDeviation="2" flood-color="#000" flood-opacity="0.1"/>
    </filter>
    <clipPath id="roundedClip">
      <rect x="10" y="10" width="1160" height="590" rx="16" ry="16"/>
    </clipPath>
    <filter id="noise">
      <feTurbulence type="fractalNoise" baseFrequency="0.65" numOctaves="3" stitchTiles="stitch"/>
      <feColorMatrix type="saturate" values="0"/>
    </filter>
  </defs>

  <rect width="1180" height="610" rx="16" ry="16" fill="url(#bgGrad)"/>
  <rect width="1180" height="610" rx="16" ry="16" filter="url(#noise)" opacity="0.02" clip-path="url(#roundedClip)"/>
  <rect x="10" y="10" width="1160" height="590" rx="16" ry="16" fill="none" stroke="url(#borderGrad)" stroke-width="1.5" clip-path="url(#roundedClip)"/>

  <circle cx="300" cy="300" r="250" fill="url(#glowCyan)" opacity="0.5">
    <animate attributeName="cx" values="300;350;300" dur="8s" repeatCount="indefinite"/>
    <animate attributeName="cy" values="300;250;300" dur="8s" repeatCount="indefinite"/>
  </circle>
  <circle cx="850" cy="250" r="300" fill="url(#glowBlue)" opacity="0.4">
    <animate attributeName="cx" values="850;800;850" dur="10s" repeatCount="indefinite"/>
    <animate attributeName="cy" values="250;300;250" dur="10s" repeatCount="indefinite"/>
  </circle>
  <circle cx="600" cy="500" r="200" fill="url(#glowEmerald)" opacity="0.3">
    <animate attributeName="cx" values="600;650;600" dur="7s" repeatCount="indefinite"/>
    <animate attributeName="cy" values="500;450;500" dur="7s" repeatCount="indefinite"/>
  </circle>

  <!-- Particles -->
  <circle cx="120" cy="80" r="1.5" fill="#06B6D4" opacity="0.5"><animate attributeName="cy" values="80;60;80" dur="4s" repeatCount="indefinite"/></circle>
  <circle cx="250" cy="150" r="1" fill="#2563EB" opacity="0.4"><animate attributeName="cy" values="150;130;150" dur="5s" repeatCount="indefinite"/></circle>
  <circle cx="400" cy="50" r="1.2" fill="#10B981" opacity="0.4"><animate attributeName="cy" values="50;35;50" dur="3.5s" repeatCount="indefinite"/></circle>
  <circle cx="600" cy="100" r="1" fill="#06B6D4" opacity="0.3"><animate attributeName="cy" values="100;80;100" dur="6s" repeatCount="indefinite"/></circle>
  <circle cx="780" cy="60" r="1.5" fill="#2563EB" opacity="0.5"><animate attributeName="cy" values="60;40;60" dur="4.5s" repeatCount="indefinite"/></circle>
  <circle cx="950" cy="120" r="1" fill="#10B981" opacity="0.4"><animate attributeName="cy" values="120;100;120" dur="5.5s" repeatCount="indefinite"/></circle>
  <circle cx="1080" cy="70" r="1.2" fill="#06B6D4" opacity="0.4"><animate attributeName="cy" values="70;50;70" dur="4s" repeatCount="indefinite"/></circle>
  <circle cx="180" cy="520" r="1" fill="#2563EB" opacity="0.3"><animate attributeName="cy" values="520;500;520" dur="5s" repeatCount="indefinite"/></circle>
  <circle cx="500" cy="560" r="1.5" fill="#10B981" opacity="0.4"><animate attributeName="cy" values="560;540;560" dur="3.5s" repeatCount="indefinite"/></circle>
  <circle cx="1000" cy="540" r="1" fill="#06B6D4" opacity="0.5"><animate attributeName="cy" values="540;520;540" dur="4.5s" repeatCount="indefinite"/></circle>

  <rect x="10" y="10" width="1160" height="80" fill="url(#scanlineGrad)" clip-path="url(#roundedClip)">
    <animate attributeName="y" values="10;530;10" dur="8s" repeatCount="indefinite"/>
  </rect>

  <!-- LEFT: ASCII Portrait -->
  <g transform="translate(80, 80)">
    <rect x="0" y="0" width="420" height="460" rx="12" ry="12" fill="#FFFFFF" stroke="#E2E8F0" stroke-width="1"/>
    <rect x="0" y="0" width="420" height="32" rx="12" ry="12" fill="#F1F5F9"/>
    <rect x="0" y="16" width="420" height="16" fill="#F1F5F9"/>
    <circle cx="22" cy="16" r="5" fill="#EF4444"/>
    <circle cx="42" cy="16" r="5" fill="#F59E0B"/>
    <circle cx="62" cy="16" r="5" fill="#10B981"/>
    <text x="210" y="20" text-anchor="middle" fill="#94A3B8" font-family="monospace" font-size="11">ascii@terminal ~ </text>

    <g fill="url(#asciiGrad)" font-family="monospace" font-size="10" filter="url(#glow)">
      <text x="30" y="65" opacity="0">
        █████╗ ██████╗ ████████╗██╗  ██╗██████╗  █████╗ ██████╗ ███████╗
        <animate attributeName="opacity" values="0;0;1" dur="0.1s" begin="0.5s" fill="freeze"/>
      </text>
      <text x="30" y="78" opacity="0">
       ██╔══██╗██╔══██╗╚══██╔══╝██║  ██║██╔══██╗██╔══██╗██╔══██╗██╔════╝
        <animate attributeName="opacity" values="0;0;1" dur="0.1s" begin="0.8s" fill="freeze"/>
      </text>
      <text x="30" y="91" opacity="0">
        ███████║██████╔╝   ██║   ███████║██████╔╝███████║██████╔╝█████╗
        <animate attributeName="opacity" values="0;0;1" dur="0.1s" begin="1.1s" fill="freeze"/>
      </text>
      <text x="30" y="104" opacity="0">
        ██╔══██║██╔══██╗   ██║   ██╔══██║██╔══██╗██╔══██║██╔═══╝ ██╔══╝
        <animate attributeName="opacity" values="0;0;1" dur="0.1s" begin="1.4s" fill="freeze"/>
      </text>
      <text x="30" y="117" opacity="0">
        ██║  ██║██████╔╝   ██║   ██║  ██║██████╔╝██║  ██║██║     ███████╗
        <animate attributeName="opacity" values="0;0;1" dur="0.1s" begin="1.7s" fill="freeze"/>
      </text>
      <text x="30" y="130" opacity="0">
        ╚═╝  ╚═╝╚═════╝    ╚═╝   ╚═╝  ╚═╝╚═════╝ ╚═╝  ╚═╝╚═╝     ╚══════╝
        <animate attributeName="opacity" values="0;0;1" dur="0.1s" begin="2.0s" fill="freeze"/>
      </text>
    </g>

    <rect x="30" y="145" width="8" height="14" fill="#06B6D4" opacity="0">
      <animate attributeName="opacity" values="0;1;1;0" dur="1s" begin="2.2s" repeatCount="indefinite"/>
    </rect>

    <g fill="#0F172A" font-family="monospace" font-size="13">
      <text x="30" y="180" opacity="0">
        <tspan fill="#06B6D4">▸</tspan> Location: <tspan fill="#10B981">India</tspan>
        <animate attributeName="opacity" values="0;1" dur="0.3s" begin="2.5s" fill="freeze"/>
      </text>
      <text x="30" y="205" opacity="0">
        <tspan fill="#06B6D4">▸</tspan> Focus: <tspan fill="#10B981">MERN Stack</tspan>
        <animate attributeName="opacity" values="0;1" dur="0.3s" begin="2.8s" fill="freeze"/>
      </text>
      <text x="30" y="230" opacity="0">
        <tspan fill="#06B6D4">▸</tspan> Focus: <tspan fill="#10B981">AI Automation</tspan>
        <animate attributeName="opacity" values="0;1" dur="0.3s" begin="3.1s" fill="freeze"/>
      </text>
      <text x="30" y="255" opacity="0">
        <tspan fill="#06B6D4">▸</tspan> Focus: <tspan fill="#10B981">Open Source</tspan>
        <animate attributeName="opacity" values="0;1" dur="0.3s" begin="3.4s" fill="freeze"/>
      </text>
      <text x="30" y="280" opacity="0">
        <tspan fill="#06B6D4">▸</tspan> OS: <tspan fill="#10B981">Linux</tspan>
        <animate attributeName="opacity" values="0;1" dur="0.3s" begin="3.7s" fill="freeze"/>
      </text>
    </g>

    <animateTransform attributeName="transform" type="translate" values="80,80;80,75;80,80" dur="6s" repeatCount="indefinite"/>
  </g>

  <!-- RIGHT: Terminal -->
  <g transform="translate(540, 80)">
    <rect x="0" y="0" width="560" height="460" rx="12" ry="12" fill="#FFFFFF" stroke="#E2E8F0" stroke-width="1"/>
    <rect x="0" y="0" width="560" height="32" rx="12" ry="12" fill="#F1F5F9"/>
    <rect x="0" y="16" width="560" height="16" fill="#F1F5F9"/>
    <circle cx="22" cy="16" r="5" fill="#EF4444"/>
    <circle cx="42" cy="16" r="5" fill="#F59E0B"/>
    <circle cx="62" cy="16" r="5" fill="#10B981"/>
    <text x="280" y="20" text-anchor="middle" fill="#94A3B8" font-family="monospace" font-size="11">atharva@dev ~ </text>

    <text x="30" y="70" fill="#0F172A" font-family="monospace" font-size="26" font-weight="bold" filter="url(#textShadow)" opacity="0">
      Hi <tspan fill="#F59E0B">👋</tspan> I'm
      <animate attributeName="opacity" values="0;1" dur="0.5s" begin="0.3s" fill="freeze"/>
    </text>
    <text x="30" y="110" fill="url(#textGrad)" font-family="monospace" font-size="42" font-weight="bold" filter="url(#glow)" opacity="0">
      Atharva
      <animate attributeName="opacity" values="0;1" dur="0.5s" begin="0.6s" fill="freeze"/>
    </text>

    <g font-family="monospace" font-size="18" fill="#475569">
      <text x="48" y="145" fill="#06B6D4" opacity="0">
        Full Stack Developer
        <animate attributeName="opacity" values="1;1;0;0;0;0;0;0;0;0" dur="10s" repeatCount="indefinite"/>
      </text>
      <text x="48" y="145" fill="#2563EB" opacity="0">
        MERN Stack Developer
        <animate attributeName="opacity" values="0;0;1;1;0;0;0;0;0;0" dur="10s" repeatCount="indefinite"/>
      </text>
      <text x="48" y="145" fill="#10B981" opacity="0">
        AI Automation Builder
        <animate attributeName="opacity" values="0;0;0;0;1;1;0;0;0;0" dur="10s" repeatCount="indefinite"/>
      </text>
      <text x="48" y="145" fill="#06B6D4" opacity="0">
        Open Source Enthusiast
        <animate attributeName="opacity" values="0;0;0;0;0;0;1;1;0;0" dur="10s" repeatCount="indefinite"/>
      </text>
      <text x="48" y="145" fill="#2563EB" opacity="0">
        Linux User
        <animate attributeName="opacity" values="0;0;0;0;0;0;0;0;1;1" dur="10s" repeatCount="indefinite"/>
      </text>
    </g>

    <line x1="30" y1="165" x2="530" y2="165" stroke="#E2E8F0" stroke-width="1"/>

    <g font-family="monospace" font-size="14" fill="#475569">
      <text x="30" y="195" opacity="0">
        <tspan fill="#10B981">❯</tspan> <tspan fill="#94A3B8">Location</tspan>
        <animate attributeName="opacity" values="0;1" dur="0.3s" begin="1.5s" fill="freeze"/>
      </text>
      <text x="50" y="215" opacity="0">
        <tspan fill="#0F172A">India</tspan>
        <animate attributeName="opacity" values="0;1" dur="0.3s" begin="1.7s" fill="freeze"/>
      </text>
      <text x="30" y="245" opacity="0">
        <tspan fill="#10B981">❯</tspan> <tspan fill="#94A3B8">Current Focus</tspan>
        <animate attributeName="opacity" values="0;1" dur="0.3s" begin="2s" fill="freeze"/>
      </text>
      <text x="50" y="265" opacity="0"><tspan fill="#0F172A">MERN Stack</tspan><animate attributeName="opacity" values="0;1" dur="0.3s" begin="2.2s" fill="freeze"/></text>
      <text x="50" y="285" opacity="0"><tspan fill="#0F172A">AI Automation</tspan><animate attributeName="opacity" values="0;1" dur="0.3s" begin="2.4s" fill="freeze"/></text>
      <text x="50" y="305" opacity="0"><tspan fill="#0F172A">Open Source</tspan><animate attributeName="opacity" values="0;1" dur="0.3s" begin="2.6s" fill="freeze"/></text>
    </g>

    <g transform="translate(30, 330)" opacity="0">
      <animate attributeName="opacity" values="0;1" dur="0.5s" begin="3s" fill="freeze"/>
      <g font-family="monospace" font-size="11">
        <rect x="0" y="0" width="72" height="24" rx="12" fill="url(#pillGrad)" stroke="#E2E8F0" stroke-width="1"/>
        <text x="36" y="16" text-anchor="middle" fill="#06B6D4">React</text>
        <rect x="82" y="0" width="82" height="24" rx="12" fill="url(#pillGrad)" stroke="#E2E8F0" stroke-width="1"/>
        <text x="123" y="16" text-anchor="middle" fill="#06B6D4">Node.js</text>
        <rect x="174" y="0" width="82" height="24" rx="12" fill="url(#pillGrad)" stroke="#E2E8F0" stroke-width="1"/>
        <text x="215" y="16" text-anchor="middle" fill="#06B6D4">Express</text>
        <rect x="266" y="0" width="88" height="24" rx="12" fill="url(#pillGrad)" stroke="#E2E8F0" stroke-width="1"/>
        <text x="310" y="16" text-anchor="middle" fill="#06B6D4">MongoDB</text>
        <rect x="364" y="0" width="98" height="24" rx="12" fill="url(#pillGrad)" stroke="#E2E8F0" stroke-width="1"/>
        <text x="413" y="16" text-anchor="middle" fill="#06B6D4">TailwindCSS</text>
        <rect x="0" y="34" width="68" height="24" rx="12" fill="url(#pillGrad)" stroke="#E2E8F0" stroke-width="1"/>
        <text x="34" y="50" text-anchor="middle" fill="#2563EB">Python</text>
        <rect x="78" y="34" width="72" height="24" rx="12" fill="url(#pillGrad)" stroke="#E2E8F0" stroke-width="1"/>
        <text x="114" y="50" text-anchor="middle" fill="#2563EB">Docker</text>
        <rect x="160" y="34" width="58" height="24" rx="12" fill="url(#pillGrad)" stroke="#E2E8F0" stroke-width="1"/>
        <text x="189" y="50" text-anchor="middle" fill="#2563EB">Git</text>
        <rect x="228" y="34" width="68" height="24" rx="12" fill="url(#pillGrad)" stroke="#E2E8F0" stroke-width="1"/>
        <text x="262" y="50" text-anchor="middle" fill="#2563EB">Linux</text>
        <rect x="306" y="34" width="72" height="24" rx="12" fill="url(#pillGrad)" stroke="#E2E8F0" stroke-width="1"/>
        <text x="342" y="50" text-anchor="middle" fill="#10B981">Ollama</text>
        <rect x="388" y="34" width="52" height="24" rx="12" fill="url(#pillGrad)" stroke="#E2E8F0" stroke-width="1"/>
        <text x="414" y="50" text-anchor="middle" fill="#10B981">n8n</text>
      </g>
    </g>

    <g transform="translate(30, 420)" opacity="0">
      <animate attributeName="opacity" values="0;1" dur="0.5s" begin="3.5s" fill="freeze"/>
      <g filter="url(#softGlow)">
        <circle cx="16" cy="16" r="14" fill="#F1F5F9" stroke="#06B6D4" stroke-width="0.5"/>
        <path d="M16 6C10.48 6 6 10.48 6 16c0 4.42 2.87 8.17 6.84 9.49.5.09.68-.22.68-.48v-1.7c-2.78.6-3.37-1.34-3.37-1.34-.46-1.16-1.11-1.47-1.11-1.47-.91-.62.07-.61.07-.61 1 .07 1.53 1.03 1.53 1.03.89 1.52 2.34 1.08 2.91.83.09-.65.35-1.09.63-1.34-2.22-.25-4.55-1.11-4.55-4.94 0-1.09.39-1.98 1.03-2.68-.1-.25-.45-1.27.1-2.64 0 0 .84-.27 2.75 1.02A9.56 9.56 0 0116 9.69c.85.004 1.71.12 2.51.34 1.91-1.29 2.75-1.02 2.75-1.02.55 1.37.2 2.39.1 2.64.64.7 1.03 1.59 1.03 2.68 0 3.84-2.34 4.68-4.57 4.93.36.31.68.92.68 1.85v2.74c0 .27.18.58.69.48A10.01 10.01 0 0026 16c0-5.52-4.48-10-10-10z" fill="#06B6D4"/>
      </g>
      <g transform="translate(48, 0)" filter="url(#softGlow)">
        <circle cx="16" cy="16" r="14" fill="#F1F5F9" stroke="#2563EB" stroke-width="0.5"/>
        <path d="M8 10h3v10H8V10zm1.5-1.5a1.75 1.75 0 110 3.5 1.75 1.75 0 010-3.5zM13 10h2.9v1.4h.04c.4-.76 1.38-1.56 2.84-1.56 3.04 0 3.6 2 3.6 4.6V20h-3v-5.1c0-1.22-.02-2.78-1.7-2.78-1.7 0-1.96 1.32-1.96 2.69V20h-3V10z" fill="#2563EB"/>
      </g>
      <g transform="translate(96, 0)" filter="url(#softGlow)">
        <circle cx="16" cy="16" r="14" fill="#F1F5F9" stroke="#10B981" stroke-width="0.5"/>
        <path d="M16 6l-10 6v8l10 6 10-6v-8L16 6zm0 2.18L22.5 12 16 14.82 9.5 12 16 8.18zM7 13.5l8 4.82V19.5l-8-4.82v-1.18zm18 0l-8 4.82v-1.18l8-4.82v1.18z" fill="#10B981"/>
      </g>
      <g transform="translate(144, 0)" filter="url(#softGlow)">
        <circle cx="16" cy="16" r="14" fill="#F1F5F9" stroke="#F59E0B" stroke-width="0.5"/>
        <path d="M6 10h20v12H6V10zm1 1l10 7 10-7m-21 0l10 7 10-7" fill="none" stroke="#F59E0B" stroke-width="1.5" stroke-linecap="round"/>
      </g>
    </g>

    <animateTransform attributeName="transform" type="translate" values="540,80;540,76;540,80" dur="7s" repeatCount="indefinite"/>
  </g>
</svg>
