<svg xmlns="http://www.w3.org/2000/svg" viewBox="0 0 120 120" width="120" height="120">
  <defs>
    <linearGradient id="g1" x1="0%" y1="0%" x2="100%" y2="100%">
      <stop offset="0%" stop-color="#7C3AED"/>
      <stop offset="100%" stop-color="#22D3EE"/>
    </linearGradient>
    <linearGradient id="g2" x1="0%" y1="0%" x2="100%" y2="100%">
      <stop offset="0%" stop-color="#22D3EE"/>
      <stop offset="100%" stop-color="#10B981"/>
    </linearGradient>
    <linearGradient id="g3" x1="0%" y1="0%" x2="100%" y2="100%">
      <stop offset="0%" stop-color="#10B981"/>
      <stop offset="100%" stop-color="#7C3AED"/>
    </linearGradient>
    <filter id="glow">
      <feGaussianBlur stdDeviation="2" result="blur"/>
      <feMerge>
        <feMergeNode in="blur"/>
        <feMergeNode in="SourceGraphic"/>
      </feMerge>
    </filter>
  </defs>
  <!-- GitHub -->
  <g transform="translate(10,10)" filter="url(#glow)">
    <circle cx="25" cy="25" r="24" fill="#0F172A" stroke="url(#g1)" stroke-width="1.5"/>
    <path d="M25 12C18.37 12 13 17.37 13 24c0 5.3 3.44 9.8 8.21 11.39.6.11.82-.26.82-.58v-2.03c-3.34.73-4.04-1.61-4.04-1.61-.55-1.39-1.34-1.76-1.34-1.76-1.09-.74.08-.73.08-.73 1.21.08 1.84 1.24 1.84 1.24 1.07 1.84 2.81 1.31 3.5 1 .11-.78.42-1.31.76-1.61-2.67-.3-5.47-1.33-5.47-5.93 0-1.31.47-2.38 1.24-3.22-.13-.3-.54-1.52.12-3.17 0 0 1.01-.32 3.3 1.23a11.5 11.5 0 016.02 0c2.3-1.55 3.3-1.23 3.3-1.23.66 1.65.25 2.87.12 3.17.77.84 1.24 1.91 1.24 3.22 0 4.61-2.81 5.63-5.48 5.93.43.37.82 1.1.82 2.22v3.29c0 .32.22.7.83.58A12.01 12.01 0 0037 24c0-6.63-5.37-12-12-12z" fill="url(#g1)"/>
  </g>
  <!-- LinkedIn -->
  <g transform="translate(55,10)" filter="url(#glow)">
    <circle cx="25" cy="25" r="24" fill="#0F172A" stroke="url(#g2)" stroke-width="1.5"/>
    <path d="M16 18h5v12h-5V18zm2.5-3.5a2.5 2.5 0 110 5 2.5 2.5 0 010-5zM24 18h4.8v1.6h.07c.67-1.27 2.3-2.6 4.73-2.6 5.07 0 6 3.34 6 7.7V30h-5v-4.5c0-2.03-.03-4.64-2.83-4.64-2.83 0-3.26 2.21-3.26 4.5V30h-5V18z" fill="url(#g2)"/>
  </g>
  <!-- Portfolio -->
  <g transform="translate(10,55)" filter="url(#glow)">
    <circle cx="25" cy="25" r="24" fill="#0F172A" stroke="url(#g3)" stroke-width="1.5"/>
    <path d="M25 12l-12 7v10l12 7 12-7V19L25 12zm0 2.9L33 19l-8 4.8L17 19l8-4.1zM13 21l9 5.4V29l-9-5.4v-2.6zm22 0l-9 5.4V29l9-5.4v-2.6z" fill="url(#g3)"/>
  </g>
  <!-- Email -->
  <g transform="translate(55,55)" filter="url(#glow)">
    <circle cx="25" cy="25" r="24" fill="#0F172A" stroke="#F59E0B" stroke-width="1.5"/>
    <path d="M11 16h28v16H11V16zm1.5 1.5l12.5 8.5 12.5-8.5" fill="none" stroke="#F59E0B" stroke-width="2" stroke-linecap="round"/>
  </g>
</svg>
